{
  "accessors": [
    {
      "name": "Imac_Mouse-Mesh_0_positions",
      "componentType": 5126,
      "count": 1220,
      "min": [
        -265.8249206542969,
        -0.0000476837158203125,
        -549.0761108398438
      ],
      "max": [
        265.8249206542969,
        159.29197692871094,
        549.0767822265625
      ],
      "type": "VEC3",
      "bufferView": 0,
      "byteOffset": 0
    },
    {
      "name": "Imac_Mouse-Mesh_0_normals",
      "componentType": 5126,
      "count": 1220,
      "min": [
        -1,
        -1,
        -0.9999954700469971
      ],
      "max": [
        1,
        0.9989836812019348,
        1
      ],
      "type": "VEC3",
      "bufferView": 1,
      "byteOffset": 0
    },
    {
      "name": "Imac_Mouse-Mesh_0_texcoords",
      "componentType": 5126,
      "count": 1220,
      "min": [
        -1.302940845489502,
        -1.3093414306640625
      ],
      "max": [
        34.01985168457031,
        79.91716003417969
      ],
      "type": "VEC2",
      "bufferView": 2,
      "byteOffset": 0
    },
    {
      "name": "Imac_Mouse-Mesh_0_indices",
      "componentType": 5123,
      "count": 5142,
      "min": [
        0
      ],
      "max": [
        1219
      ],
      "type": "SCALAR",
      "bufferView": 3,
      "byteOffset": 0
    },
    {
      "name": "Imac_Mouse-Mesh_1_positions",
      "componentType": 5126,
      "count": 128,
      "min": [
        -98.26644134521484,
        0.901787281036377,
        -363.88427734375
      ],
      "max": [
        -71.53968048095703,
        2.925553321838379,
        -337.10760498046875
      ],
      "type": "VEC3",
      "bufferView": 0,
      "byteOffset": 14640
    },
    {
      "name": "Imac_Mouse-Mesh_1_normals",
      "componentType": 5126,
      "count": 128,
      "min": [
        -0.907996654510498,
        -0.999310314655304,
        -0.8807275295257568
      ],
      "max": [
        0.8501653671264648,
        -0.41897737979888916,
        0.8807168006896973
      ],
      "type": "VEC3",
      "bufferView": 1,
      "byteOffset": 14640
    },
    {
      "name": "Imac_Mouse-Mesh_1_texcoords",
      "componentType": 5126,
      "count": 128,
      "min": [
        0.014564009383320808,
        0.014119386672973633
      ],
      "max": [
        0.9854378700256348,
        0.9849934577941895
      ],
      "type": "VEC2",
      "bufferView": 2,
      "byteOffset": 9760
    },
    {
      "name": "Imac_Mouse-Mesh_1_indices",
      "componentType": 5123,
      "count": 666,
      "min": [
        0
      ],
      "max": [
        127
      ],
      "type": "SCALAR",
      "bufferView": 3,
      "byteOffset": 10284
    },
    {
      "name": "Imac_Mouse-Mesh_2_positions",
      "componentType": 5126,
      "count": 4,
      "min": [
        -102.3578872680664,
        18.862834930419922,
        -369.2025451660156
      ],
      "max": [
        -65.102294921875,
        21.16168212890625,
        -303.6270446777344
      ],
      "type": "VEC3",
      "bufferView": 0,
      "byteOffset": 16176
    },
    {
      "name": "Imac_Mouse-Mesh_2_normals",
      "componentType": 5126,
      "count": 4,
      "min": [
        -0.06158757954835892,
        -0.9981017112731934,
        6.979288968977926e-8
      ],
      "max": [
        -0.06158757954835892,
        -0.9981017112731934,
        6.979288968977926e-8
      ],
      "type": "VEC3",
      "bufferView": 1,
      "byteOffset": 16176
    },
    {
      "name": "Imac_Mouse-Mesh_2_texcoords",
      "componentType": 5126,
      "count": 4,
      "min": [
        0.0016055107116699219,
        0.21392834186553955
      ],
      "max": [
        1.0002059936523438,
        0.7852386236190796
      ],
      "type": "VEC2",
      "bufferView": 2,
      "byteOffset": 10784
    },
    {
      "name": "Imac_Mouse-Mesh_2_indices",
      "componentType": 5123,
      "count": 6,
      "min": [
        0
      ],
      "max": [
        3
      ],
      "type": "SCALAR",
      "bufferView": 3,
      "byteOffset": 11616
    },
    {
      "name": "Imac_Mouse-Mesh_3_positions",
      "componentType": 5126,
      "count": 128,
      "min": [
        -98.34396362304688,
        1.2908744812011719,
        -363.9959411621094
      ],
      "max": [
        -70.2990951538086,
        21.393692016601562,
        -336.9959411621094
      ],
      "type": "VEC3",
      "bufferView": 0,
      "byteOffset": 16224
    },
    {
      "name": "Imac_Mouse-Mesh_3_normals",
      "componentType": 5126,
      "count": 128,
      "min": [
        -0.9992749691009521,
        -0.5265157222747803,
        -1
      ],
      "max": [
        0.9981347918510437,
        0.06105175241827965,
        1
      ],
      "type": "VEC3",
      "bufferView": 1,
      "byteOffset": 16224
    },
    {
      "name": "Imac_Mouse-Mesh_3_texcoords",
      "componentType": 5126,
      "count": 128,
      "min": [
        0.0819239616394043,
        0.2910327911376953
      ],
      "max": [
        0.49215269088745117,
        0.7025996446609497
      ],
      "type": "VEC2",
      "bufferView": 2,
      "byteOffset": 10816
    },
    {
      "name": "Imac_Mouse-Mesh_3_indices",
      "componentType": 5123,
      "count": 576,
      "min": [
        0
      ],
      "max": [
        127
      ],
      "type": "SCALAR",
      "bufferView": 3,
      "byteOffset": 11628
    },
    {
      "name": "Imac_Mouse-Mesh_4_positions",
      "componentType": 5126,
      "count": 6098,
      "min": [
        -285.18603515625,
        1.2792658805847168,
        -558.5518798828125
      ],
      "max": [
        285.18603515625,
        150.98216247558594,
        558.5518798828125
      ],
      "type": "VEC3",
      "bufferView": 0,
      "byteOffset": 17760
    },
    {
      "name": "Imac_Mouse-Mesh_4_normals",
      "componentType": 5126,
      "count": 6098,
      "min": [
        -1,
        -1,
        -1
      ],
      "max": [
        1,
        1,
        1
      ],
      "type": "VEC3",
      "bufferView": 1,
      "byteOffset": 17760
    },
    {
      "name": "Imac_Mouse-Mesh_4_texcoords",
      "componentType": 5126,
      "count": 6098,
      "min": [
        0,
        0
      ],
      "max": [
        0.9779861569404602,
        1.0002751350402832
      ],
      "type": "VEC2",
      "bufferView": 2,
      "byteOffset": 11840
    },
    {
      "name": "Imac_Mouse-Mesh_4_indices",
      "componentType": 5123,
      "count": 31770,
      "min": [
        0
      ],
      "max": [
        6097
      ],
      "type": "SCALAR",
      "bufferView": 3,
      "byteOffset": 12780
    },
    {
      "name": "Imac_Mouse-Mesh_5_positions",
      "componentType": 5126,
      "count": 494,
      "min": [
        -41.91066360473633,
        5.816082954406738,
        -382.20672607421875
      ],
      "max": [
        41.48564529418945,
        61.86515808105469,
        -294.6113586425781
      ],
      "type": "VEC3",
      "bufferView": 0,
      "byteOffset": 90936
    },
    {
      "name": "Imac_Mouse-Mesh_5_normals",
      "componentType": 5126,
      "count": 494,
      "min": [
        -1,
        -0.9998512268066406,
        -1
      ],
      "max": [
        1,
        0.31387707591056824,
        1
      ],
      "type": "VEC3",
      "bufferView": 1,
      "byteOffset": 90936
    },
    {
      "name": "Imac_Mouse-Mesh_5_texcoords",
      "componentType": 5126,
      "count": 494,
      "min": [
        -3.917600631713867,
        -1.5115199089050293
      ],
      "max": [
        4.346107482910156,
        1.210087537765503
      ],
      "type": "VEC2",
      "bufferView": 2,
      "byteOffset": 60624
    },
    {
      "name": "Imac_Mouse-Mesh_5_indices",
      "componentType": 5123,
      "count": 2100,
      "min": [
        0
      ],
      "max": [
        493
      ],
      "type": "SCALAR",
      "bufferView": 3,
      "byteOffset": 76320
    },
    {
      "name": "Imac_Mouse-Mesh_6_positions",
      "componentType": 5126,
      "count": 2461,
      "min": [
        -287.1578369140625,
        38.612850189208984,
        -563.8834228515625
      ],
      "max": [
        287.15789794921875,
        200.6885528564453,
        563.8834228515625
      ],
      "type": "VEC3",
      "bufferView": 0,
      "byteOffset": 96864
    },
    {
      "name": "Imac_Mouse-Mesh_6_normals",
      "componentType": 5126,
      "count": 2461,
      "min": [
        -0.5976129174232483,
        -1,
        -0.6163610219955444
      ],
      "max": [
        0.5976128578186035,
        -0.7874636650085449,
        0.616360604763031
      ],
      "type": "VEC3",
      "bufferView": 1,
      "byteOffset": 96864
    },
    {
      "name": "Imac_Mouse-Mesh_6_texcoords",
      "componentType": 5126,
      "count": 2461,
      "min": [
        0.015444457530975342,
        0.04355061054229736
      ],
      "max": [
        0.7616263628005981,
        0.6650288105010986
      ],
      "type": "VEC2",
      "bufferView": 2,
      "byteOffset": 64576
    },
    {
      "name": "Imac_Mouse-Mesh_6_indices",
      "componentType": 5123,
      "count": 14088,
      "min": [
        0
      ],
      "max": [
        2460
      ],
      "type": "SCALAR",
      "bufferView": 3,
      "byteOffset": 80520
    },
    {
      "name": "Imac_Mouse-Mesh_7_positions",
      "componentType": 5126,
      "count": 1008,
      "min": [
        -289.8801574707031,
        38.612850189208984,
        -574.6626586914062
      ],
      "max": [
        289.8802185058594,
        180.5132293701172,
        574.6626586914062
      ],
      "type": "VEC3",
      "bufferView": 0,
      "byteOffset": 126396
    },
    {
      "name": "Imac_Mouse-Mesh_7_normals",
      "componentType": 5126,
      "count": 1008,
      "min": [
        -0.9993513822555542,
        -0.9822949171066284,
        -0.9843029379844666
      ],
      "max": [
        0.9993513822555542,
        0.5643366575241089,
        0.984302818775177
      ],
      "type": "VEC3",
      "bufferView": 1,
      "byteOffset": 126396
    },
    {
      "name": "Imac_Mouse-Mesh_7_texcoords",
      "componentType": 5126,
      "count": 1008,
      "min": [
        0,
        7.13087272644043
      ],
      "max": [
        28.999610900878906,
        19.53726577758789
      ],
      "type": "VEC2",
      "bufferView": 2,
      "byteOffset": 84264
    },
    {
      "name": "Imac_Mouse-Mesh_7_indices",
      "componentType": 5123,
      "count": 5040,
      "min": [
        0
      ],
      "max": [
        1007
      ],
      "type": "SCALAR",
      "bufferView": 3,
      "byteOffset": 108696
    },
    {
      "name": "Imac_Mouse-Mesh_8_positions",
      "componentType": 5126,
      "count": 2433,
      "min": [
        -289.7259521484375,
        56.994720458984375,
        -574.6626586914062
      ],
      "max": [
        289.7260437011719,
        223.18325805664062,
        574.6626586914062
      ],
      "type": "VEC3",
      "bufferView": 0,
      "byteOffset": 138492
    },
    {
      "name": "Imac_Mouse-Mesh_8_normals",
      "componentType": 5126,
      "count": 2433,
      "min": [
        -0.8306430578231812,
        0.1764872670173645,
        -0.9843029379844666
      ],
      "max": [
        0.8306430578231812,
        1,
        0.984302818775177
      ],
      "type": "VEC3",
      "bufferView": 1,
      "byteOffset": 138492
    },
    {
      "name": "Imac_Mouse-Mesh_8_texcoords",
      "componentType": 5126,
      "count": 2433,
      "min": [
        -0.0000011920928955078125,
        7.162627220153809
      ],
      "max": [
        28.95145034790039,
        23.78323745727539
      ],
      "type": "VEC2",
      "bufferView": 2,
      "byteOffset": 92328
    },
    {
      "name": "Imac_Mouse-Mesh_8_indices",
      "componentType": 5123,
      "count": 14088,
      "min": [
        0
      ],
      "max": [
        2432
      ],
      "type": "SCALAR",
      "bufferView": 3,
      "byteOffset": 118776
    }
  ],
  "asset": {
    "generator": "obj2gltf",
    "version": "2.0"
  },
  "buffers": [
    {
      "name": "Apple Imac Mouse",
      "byteLength": 594120,
      "uri": "data:application/octet-stream;base64,"
    }
  ],
  "bufferViews": [
    {
      "name": "bufferView_0",
      "buffer": 0,
      "byteLength": 167688,
      "byteOffset": 0,
      "byteStride": 12,
      "target": 34962
    },
    {
      "name": "bufferView_1",
      "buffer": 0,
      "byteLength": 167688,
      "byteOffset": 167688,
      "byteStride": 12,
      "target": 34962
    },
    {
      "name": "bufferView_2",
      "buffer": 0,
      "byteLength": 111792,
      "byteOffset": 335376,
      "byteStride": 8,
      "target": 34962
    },
    {
      "name": "bufferView_3",
      "buffer": 0,
      "byteLength": 146952,
      "byteOffset": 447168,
      "target": 34963
    }
  ],
  "materials": [
    {
      "name": "plastic black",
      "pbrMetallicRoughness": {
        "baseColorFactor": [
          0.01568627543747,
          0.01568627543747,
          0.01568627543747,
          1
        ],
        "metallicFactor": 0,
        "roughnessFactor": 0.96
      },
      "emissiveFactor": [
        0,
        0,
        0
      ],
      "alphaMode": "OPAQUE",
      "doubleSided": false
    },
    {
      "name": "switch top",
      "pbrMetallicRoughness": {
        "baseColorFactor": [
          0.21763767302036,
          0.21763767302036,
          0.21763767302036,
          1
        ],
        "metallicFactor": 0,
        "roughnessFactor": 0.9299999999999999
      },
      "emissiveFactor": [
        0,
        0,
        0
      ],
      "alphaMode": "OPAQUE",
      "doubleSided": false
    },
    {
      "name": "plastic green",
      "pbrMetallicRoughness": {
        "baseColorFactor": [
          0.09387589246035,
          0.75929987430573,
          0.00658495770767,
          1
        ],
        "metallicFactor": 0,
        "roughnessFactor": 1
      },
      "emissiveFactor": [
        0,
        0,
        0
      ],
      "alphaMode": "OPAQUE",
      "doubleSided": false
    },
    {
      "name": "chrome",
      "pbrMetallicRoughness": {
        "baseColorFactor": [
          0.39215689897537,
          0.39215689897537,
          0.39215689897537,
          1
        ],
        "metallicFactor": 0,
        "roughnessFactor": 0.98
      },
      "emissiveFactor": [
        0,
        0,
        0
      ],
      "alphaMode": "OPAQUE",
      "doubleSided": false
    },
    {
      "name": "aluminium",
      "pbrMetallicRoughness": {
        "baseColorFactor": [
          0.73333334922791,
          0.74901962280273,
          0.76470601558685,
          1
        ],
        "metallicFactor": 0,
        "roughnessFactor": 0.961
      },
      "emissiveFactor": [
        0,
        0,
        0
      ],
      "alphaMode": "OPAQUE",
      "doubleSided": false
    },
    {
      "name": "sensor",
      "pbrMetallicRoughness": {
        "baseColorFactor": [
          0.03921568766236,
          0.03921568766236,
          0.03921568766236,
          1
        ],
        "metallicFactor": 0,
        "roughnessFactor": 0.94
      },
      "emissiveFactor": [
        0,
        0,
        0
      ],
      "alphaMode": "OPAQUE",
      "doubleSided": false
    },
    {
      "name": "plastic top",
      "pbrMetallicRoughness": {
        "baseColorFactor": [
          0.91372561454773,
          0.91372561454773,
          0.94117659330368,
          1
        ],
        "metallicFactor": 0,
        "roughnessFactor": 1
      },
      "emissiveFactor": [
        0,
        0,
        0
      ],
      "alphaMode": "OPAQUE",
      "doubleSided": false
    },
    {
      "name": "glass edges",
      "pbrMetallicRoughness": {
        "baseColorFactor": [
          0.78431379795074,
          0.78431379795074,
          0.78431379795074,
          0.5
        ],
        "metallicFactor": 0,
        "roughnessFactor": 0.98
      },
      "emissiveFactor": [
        0,
        0,
        0
      ],
      "alphaMode": "BLEND",
      "doubleSided": true
    },
    {
      "name": "glass top",
      "pbrMetallicRoughness": {
        "baseColorFactor": [
          1,
          1,
          1,
          0.2
        ],
        "metallicFactor": 0,
        "roughnessFactor": 0.9299999999999999
      },
      "emissiveFactor": [
        0,
        0,
        0
      ],
      "alphaMode": "BLEND",
      "doubleSided": true
    }
  ],
  "meshes": [
    {
      "name": "Imac_Mouse-Mesh",
      "primitives": [
        {
          "attributes": {
            "POSITION": 0,
            "NORMAL": 1,
            "TEXCOORD_0": 2
          },
          "indices": 3,
          "material": 0,
          "mode": 4
        },
        {
          "attributes": {
            "POSITION": 4,
            "NORMAL": 5,
            "TEXCOORD_0": 6
          },
          "indices": 7,
          "material": 1,
          "mode": 4
        },
        {
          "attributes": {
            "POSITION": 8,
            "NORMAL": 9,
            "TEXCOORD_0": 10
          },
          "indices": 11,
          "material": 2,
          "mode": 4
        },
        {
          "attributes": {
            "POSITION": 12,
            "NORMAL": 13,
            "TEXCOORD_0": 14
          },
          "indices": 15,
          "material": 3,
          "mode": 4
        },
        {
          "attributes": {
            "POSITION": 16,
            "NORMAL": 17,
            "TEXCOORD_0": 18
          },
          "indices": 19,
          "material": 4,
          "mode": 4
        },
        {
          "attributes": {
            "POSITION": 20,
            "NORMAL": 21,
            "TEXCOORD_0": 22
          },
          "indices": 23,
          "material": 5,
          "mode": 4
        },
        {
          "attributes": {
            "POSITION": 24,
            "NORMAL": 25,
            "TEXCOORD_0": 26
          },
          "indices": 27,
          "material": 6,
          "mode": 4
        },
        {
          "attributes": {
            "POSITION": 28,
            "NORMAL": 29,
            "TEXCOORD_0": 30
          },
          "indices": 31,
          "material": 7,
          "mode": 4
        },
        {
          "attributes": {
            "POSITION": 32,
            "NORMAL": 33,
            "TEXCOORD_0": 34
          },
          "indices": 35,
          "material": 8,
          "mode": 4
        }
      ]
    }
  ],
  "nodes": [
    {
      "name": "Imac_Mouse",
      "mesh": 0
    }
  ],
  "scene": 0,
  "scenes": [
    {
      "nodes": [
        0
      ]
    }
  ]
}
