{
  "accessors": [
    {
      "name": "10106_Computer_Mouse_v1_1_0_positions",
      "componentType": 5126,
      "count": 9583,
      "min": [
        -4.880899906158447,
        -3.315999984741211,
        0
      ],
      "max": [
        7.301000118255615,
        4.406199932098389,
        4.303100109100342
      ],
      "type": "VEC3",
      "bufferView": 0,
      "byteOffset": 0
    },
    {
      "name": "10106_Computer_Mouse_v1_1_0_normals",
      "componentType": 5126,
      "count": 9583,
      "min": [
        -1,
        -1,
        -1
      ],
      "max": [
        1,
        1,
        1
      ],
      "type": "VEC3",
      "bufferView": 1,
      "byteOffset": 0
    },
    {
      "name": "10106_Computer_Mouse_v1_1_0_texcoords",
      "componentType": 5126,
      "count": 9583,
      "min": [
        0.009999999776482582,
        0.010400000028312206
      ],
      "max": [
        0.9918000102043152,
        0.9900000095367432
      ],
      "type": "VEC2",
      "bufferView": 2,
      "byteOffset": 0
    },
    {
      "name": "10106_Computer_Mouse_v1_1_0_indices",
      "componentType": 5123,
      "count": 48249,
      "min": [
        0
      ],
      "max": [
        9582
      ],
      "type": "SCALAR",
      "bufferView": 3,
      "byteOffset": 0
    }
  ],
  "asset": {
    "generator": "obj2gltf",
    "version": "2.0"
  },
  "buffers": [
    {
      "name": "10106_ComputerMouse_v1_L3",
      "byteLength": 744700,
      "uri": "data:application/octet-stream;base64,"
    }
  ],
  "bufferViews": [
    {
      "name": "bufferView_0",
      "buffer": 0,
      "byteLength": 114996,
      "byteOffset": 0,
      "byteStride": 12,
      "target": 34962
    },
    {
      "name": "bufferView_1",
      "buffer": 0,
      "byteLength": 114996,
      "byteOffset": 114996,
      "byteStride": 12,
      "target": 34962
    },
    {
      "name": "bufferView_2",
      "buffer": 0,
      "byteLength": 76664,
      "byteOffset": 229992,
      "byteStride": 8,
      "target": 34962
    },
    {
      "name": "bufferView_3",
      "buffer": 0,
      "byteLength": 96500,
      "byteOffset": 306656,
      "target": 34963
    },
    {
      "buffer": 0,
      "byteOffset": 403156,
      "byteLength": 341543
    }
  ],
  "images": [
    {
      "name": "10106_Computer Mouse_v1_Diffuse",
      "mimeType": "image/jpeg",
      "bufferView": 4
    }
  ],
  "materials": [
    {
      "name": "_10106_Computer_Mouse_v1_L310106_Computer_Mouse_v1",
      "pbrMetallicRoughness": {
        "baseColorTexture": {
          "index": 0
        },
        "baseColorFactor": [
          1,
          1,
          1,
          1
        ],
        "metallicFactor": 0,
        "roughnessFactor": 0.947
      },
      "emissiveFactor": [
        0,
        0,
        0
      ],
      "alphaMode": "OPAQUE",
      "doubleSided": false
    }
  ],
  "meshes": [
    {
      "name": "10106_Computer_Mouse_v1_1",
      "primitives": [
        {
          "attributes": {
            "POSITION": 0,
            "NORMAL": 1,
            "TEXCOORD_0": 2
          },
          "indices": 3,
          "material": 0,
          "mode": 4
        }
      ]
    }
  ],
  "nodes": [
    {
      "name": "10106_Computer_Mouse_v1",
      "mesh": 0
    }
  ],
  "samplers": [
    {
      "wrapS": 10497,
      "wrapT": 10497
    }
  ],
  "scene": 0,
  "scenes": [
    {
      "nodes": [
        0
      ]
    }
  ],
  "textures": [
    {
      "name": "10106_Computer Mouse_v1_Diffuse",
      "sampler": 0,
      "source": 0
    }
  ]
}
